<?xml version="1.0" standalone="no"?>
<!DOCTYPE svg PUBLIC "-//W3C//DTD SVG 20010904//EN"
 "http://www.w3.org/TR/2001/REC-SVG-20010904/DTD/svg10.dtd">
<svg version="1.0" xmlns="http://www.w3.org/2000/svg"
 width="512" height="512" viewBox="0 0 512 512"
 preserveAspectRatio="xMidYMid meet">

<g transform="translate(0,512) scale(0.1,-0.1)"
fill="#FFFFFF" stroke="none">
<path d="M1793 4775 c-122 -62 -167 -214 -97 -332 31 -54 51 -68 269 -193 99
-57 186 -108 193 -115 10 -9 -10 -18 -90 -40 -556 -153 -992 -516 -1238 -1027
-345 -721 -211 -1569 341 -2152 373 -395 914 -614 1459 -593 278 11 513 69
759 187 401 194 709 501 901 902 253 528 253 1126 -1 1657 -60 126 -159 286
-219 354 -62 71 -149 99 -241 77 -67 -16 -151 -94 -168 -155 -27 -98 -13 -145
83 -288 41 -62 93 -151 115 -198 372 -793 -31 -1722 -860 -1987 -163 -53 -256
-66 -444 -66 -249 1 -417 40 -640 150 -401 197 -683 573 -771 1029 -25 127
-25 358 0 490 86 461 379 847 804 1060 81 40 241 99 325 119 34 8 46 34 -112
-239 -107 -186 -115 -204 -119 -262 -5 -77 9 -120 58 -176 104 -117 290 -103
376 28 18 27 157 266 310 530 298 517 306 534 270 603 -26 49 -47 65 -271 193
-115 67 -343 199 -505 293 l-295 170 -70 4 c-60 3 -78 0 -122 -23z"/>
</g>
</svg>
